<svg id="Ebene_1" data-name="Ebene 1" xmlns="http://www.w3.org/2000/svg" viewBox="0 0 1148.66 473.37"><defs><style>.cls-1,.cls-2,.cls-3{fill:none;stroke:#1d1d1b;stroke-miterlimit:10;}.cls-1{stroke-width:0.5px;}.cls-2{stroke-width:3px;}</style></defs><title>Map</title><path id="BaseMap" class="cls-1" d="M1517.5,481.19l-52.5-121,26.5-13-10-16.5-23.5,13-12.5-19-23,4,8.5,30.5-22,6-11-30.5-29.5,13.5,5,26.5-21.5,5.5-11-30-25,10,4.5,27.5-27.5,6.5-5.5-28-29,9.5,1.5,28.5-22,4.5-11.5-26.5-34,9.5,6.5,38-21,6-10.5-38.5-30,8,5,22-23.5,7.5-6-21-28.5,7,8.5,28-21.5,3-6.5-23-7.5,1,11.5,30.5-18.5,7.5-2-3.5-10,2,2,4.5,7.5,1.5,6.5,15.5,9.5-4-3-11.5,12.5-1.5,13.5,34.75,8-2.75,3.5-12.5,36.5-9.5,12.5,46-22.5,5-11-37-10,4,5,15.5-19.5,7.5,28,71.5,7.5,1,3.5,11.5-27,6-3-11,7.5-2-38.5-101-31,5-16.5-48.5,19.5-10-4-11-23,11-4.5-18,78.5-24-13.5-60.5-119.5,15,1.5,81,17,36,36-3.5,4.28,22.5L991.5,503.64,988,530.19l-21.5,4.5-8.57-39.59-22.18,3.29,5,27.75-20,4L903,458.69l-27.5.5,20.5,75,6.5.5,9,2,4.5,9.5-1.5,8.5-6,9,17,67.5-14,4.5-14-74.5-26,6-83,8.5,1.5,13.5,10,6,1,15.5-4.5,6,55-6.5-.5-9.5h44.5v18l9.5,64-1,13.5-10,2.5,2-22.5-9,2.5-8.5-38.5-170,20.5,4.5,36.5-9.5.5,6.5,44H699.5l-2.5-43.5-11,.5-5.5-67.5,7-1.5,1.5-11,12.5-4.5-4-30-144,18.5,8,30-25,12.5-2.5,14,31.5-.5,17,53.5-9.5,3.5-1-10-15.5-35.5-37-1,1.5-20.5,3.5-15.5,18-9.5-17-41.5,183-25,.5-14.5,18-1.5v13.5l156-19.5-7-35-15-8-3.5-28.5-35.5-1.5,2.5,55-21,.5-7-46-30,4,6,47.5-22,2.5-5.5-51-23.5,2.5,3.5,38-26,.5-4-35-29.5,6,5.5,48-24.5-.5-9.5-46.5-26,3.5,3,47.5-26,1.5-5-47.5-25.5,1,2,49h-23l-3.5-42.5H508.5v44.5L466,577.19l56,154H508l-57.5-158,39.5-32.5,1.5-40.5-6.5-9.5-60,32.5-15-25,62-31.5-10-28-65.5,30-10.5-24,62.5-30.5-25.5-57,17.5-10.5,6.5,7,39.5-22.5,114.5-7v7l-106,13-42,26,53.5,109v-45h16l8.5,49.5,28.5-6-4.5-46.5,22-1.5,5.5,48,30-4-5.5-48.5,22.5-2.5,5,48.5,30-1-4.5-50,27.5-1.5,5,47.5,24.5-3-4-47,24-2,4,46,32-3-5.5-50,24.5-2-4-45.5,14.5-4,9.5,37,26-1.5,9,57,22.5-3-23-92.5L654,335.19v-9l143,11.5,5.5-45.5,16,3.5v42l36.5,3.5,56-4v16l-53-.5,11,34,17,3,14.5,54.5,27.5-3-.5-45.5-6,.5v-61l172.5-21,17,83,26.5-6.5-11-44,24.5-5,10,39.5,29-3.5-9.5-43.5,19-5,12.5,42.25,41-10.75-8.5-42.5,18-4,11.5,38.5,34-8.5-11.5-60,19-5,3,6.5,54.5-16.5,17,52.5,29.5-6.5-10-41,19.5-5,16,37h8l14.5,13.5,22-8,19.25,42-25.25,14,50.5,106Zm-177-147.5,19-6.5-9.5-31.5-18,4.5ZM803.25,448.53h16.5l-5.5-38h-18.5Z" transform="translate(-385.67 -268.57)"/><polygon id="Room2" class="cls-2" points="535.08 261.57 513.68 175.62 569.33 169.12 586.33 205.12 622.33 201.62 626.6 224.12 605.83 235.07 602.33 261.62 580.83 266.12 572.25 226.53 550.08 229.82 555.08 257.57 535.08 261.57"/><path id="Room1" class="cls-3" d="M1137.5,390.69l-10.74-44.05,24.24-4.95,10,39.5,29-3.5-9.5-43.5,19-5,12.5,42.25,41-10.75-8.5-42.5,18-4,11.5,38.5,34-8.5-11.5-60,19-5,3,6.5,54.5-16.5,17,52.5,29.5-6.5-10-41,19.5-5,16,37,.5,18.5-23,4,8.5,30.5-22,6-11-30.5-29.5,13.5,5,26.5-21.5,5.5-11-30-25,10,4.5,27.5-27.5,6.5-5.5-28-29,9.5,1.5,28.5-22,4.5-11.5-26.5-34,9.5,6.5,38-21,6-10.5-38.5-30,8,5,22-23.5,7.5-6-21-2-16.5Zm203-57,19-6.5-9.5-31.5-18,4.5Z" transform="translate(-385.67 -268.57)"/></svg>